<?xml version="1.0" encoding="UTF-8"?>
<svg version="1.1" xmlns="http://www.w3.org/2000/svg" width="66" height="63">
<path d="M0 0 C21.78 0 43.56 0 66 0 C66 20.79 66 41.58 66 63 C44.22 63 22.44 63 0 63 C0 42.21 0 21.42 0 0 Z " fill="#060504" transform="translate(0,0)"/>
<path d="M0 0 C2.9375 0.1875 2.9375 0.1875 3.9375 1.1875 C4.01063567 3.71799402 4.02997527 6.22054837 4 8.75 C3.99548828 9.46091797 3.99097656 10.17183594 3.98632812 10.90429688 C3.97450864 12.66540013 3.95657263 14.42646036 3.9375 16.1875 C7.2375 16.1875 10.5375 16.1875 13.9375 16.1875 C13.92589844 15.11628906 13.91429688 14.04507812 13.90234375 12.94140625 C13.89296701 11.54427257 13.88386669 10.14713701 13.875 8.75 C13.86662109 8.04294922 13.85824219 7.33589844 13.84960938 6.60742188 C13.84096412 4.80056441 13.88529989 2.99362397 13.9375 1.1875 C14.9375 0.1875 14.9375 0.1875 17.875 0 C20.9375 0.1875 20.9375 0.1875 22.9375 2.1875 C23.11260386 4.84041757 23.16905483 7.38736174 23.1328125 10.0390625 C23.1299826 10.81309418 23.12715271 11.58712585 23.12423706 12.38461304 C23.11302754 14.86073157 23.08792203 17.3364905 23.0625 19.8125 C23.05247118 21.48957812 23.04334516 23.16666189 23.03515625 24.84375 C23.01308574 28.95847223 22.97855102 33.07292511 22.9375 37.1875 C20.20502652 38.55373674 17.95551098 38.315926 14.9375 38.1875 C13.9375 37.1875 13.9375 37.1875 13.83984375 33.80859375 C13.84651631 32.41402923 13.85847468 31.01948257 13.875 29.625 C13.87951172 28.91408203 13.88402344 28.20316406 13.88867188 27.47070312 C13.90049136 25.70959987 13.91842737 23.94853964 13.9375 22.1875 C10.6375 22.1875 7.3375 22.1875 3.9375 22.1875 C3.94910156 23.25871094 3.96070313 24.32992187 3.97265625 25.43359375 C3.98203299 26.83072743 3.99113331 28.22786299 4 29.625 C4.00837891 30.33205078 4.01675781 31.03910156 4.02539062 31.76757812 C4.03403588 33.57443559 3.98970011 35.38137603 3.9375 37.1875 C2.9375 38.1875 2.9375 38.1875 -0.5625 38.3125 C-4.0625 38.1875 -4.0625 38.1875 -5.0625 37.1875 C-5.17582093 34.61730515 -5.22667485 32.07498523 -5.23046875 29.50390625 C-5.23546135 28.34785133 -5.23546135 28.34785133 -5.24055481 27.16844177 C-5.2456271 25.53507079 -5.24796304 23.9016894 -5.24780273 22.26831055 C-5.2499878 19.76398701 -5.26813595 17.26010479 -5.28710938 14.75585938 C-5.29004347 13.17187651 -5.29202816 11.58789155 -5.29296875 10.00390625 C-5.30015427 9.2517836 -5.30733978 8.49966095 -5.31474304 7.7247467 C-5.28208899 0.3233932 -5.28208899 0.3233932 0 0 Z " fill="#D4A207" transform="translate(25.0625,13.8125)"/>
<path d="M0 0 C2.64 0 5.28 0 8 0 C8 3.3 8 6.6 8 10 C8.99 10 9.98 10 11 10 C11 11.98 11 13.96 11 16 C10.01 16 9.02 16 8 16 C8 19.3 8 22.6 8 26 C5.36 26 2.72 26 0 26 C0 17.42 0 8.84 0 0 Z " fill="#E0AB07" transform="translate(50,20)"/>
<path d="M0 0 C2.64 0 5.28 0 8 0 C8 8.58 8 17.16 8 26 C5.36 26 2.72 26 0 26 C0 22.7 0 19.4 0 16 C-0.99 16 -1.98 16 -3 16 C-3 14.02 -3 12.04 -3 10 C-2.01 10 -1.02 10 0 10 C0 6.7 0 3.4 0 0 Z " fill="#E0AB07" transform="translate(10,20)"/>
</svg>
